<?xml version="1.0" standalone="no"?>
<!DOCTYPE svg PUBLIC "-//W3C//DTD SVG 20010904//EN"
 "http://www.w3.org/TR/2001/REC-SVG-20010904/DTD/svg10.dtd">
<svg version="1.0" xmlns="http://www.w3.org/2000/svg"
 width="129.000000pt" height="129.000000pt" viewBox="0 0 129.000000 129.000000"
 preserveAspectRatio="xMidYMid meet">
<metadata>
Created by potrace 1.11, written by Peter Selinger 2001-2013
</metadata>
<g transform="translate(0.000000,129.000000) scale(0.100000,-0.100000)"
fill="#000000" stroke="none">
<path d="M235 1276 c-95 -30 -162 -88 -204 -176 l-26 -55 0 -400 0 -400 26
-55 c33 -70 89 -126 159 -159 l55 -26 400 0 400 0 55 26 c70 33 126 89 159
159 l26 55 0 400 0 400 -26 55 c-33 70 -89 126 -159 159 l-55 26 -385 2 c-291
2 -395 -1 -425 -11z m295 -371 c0 -124 6 -155 26 -124 14 23 96 50 148 50 85
0 145 -34 183 -104 15 -27 18 -67 21 -254 l4 -223 -76 0 -76 0 0 173 c0 94 -5
189 -10 209 -13 47 -43 68 -96 68 -34 0 -49 -6 -73 -30 -43 -44 -51 -84 -51
-262 l0 -158 -75 0 -75 0 0 395 0 395 75 0 75 0 0 -135z"/>
</g>
</svg>
